<svg xmlns="http://www.w3.org/2000/svg" xmlns:xlink="http://www.w3.org/1999/xlink" id="Capa_1" x="0px" y="0px" viewBox="0 0 125.2 125.2" style="enable-background:new 0 0 125.2 125.2;" xml:space="preserve"><style type="text/css">	.st1{fill-rule:evenodd;clip-rule:evenodd;fill:#007236;}	.st2{fill:#231F20;}	.st3{fill-rule:evenodd;clip-rule:evenodd;fill:#8DC63F;}</style><g>	<path class="st1" d="M67.6,35.1c2.7,0,4.8,2.7,4.8,6.1c0,2.5-1.2,4.7-2.9,5.6c3.7,0.1,5.7,1.3,6.6,3.3l2.4,12c5.2,2.9,3,7.4-2,7.4  h-7.7c2.8-3.8-0.4-7.2-4-7.1l-3.5,0c-3.8,0-4.9-0.4-4.6-3l1.7-8.4c0.6-2.2,2-3.5,4.3-3.8l2.9-0.4c-1.7-0.9-3-3.1-3-5.6  C62.8,37.8,64.9,35.1,67.6,35.1"></path>	<path class="st1" d="M65.3,29c-2.8-0.5-5.6,0.8-6.1,3.2c-0.4,2.2-1.5,3.3-2.2,5c-0.8,2.4,0.1,4.1,2.8,4.9c-4.4-0.4-6.9,1.3-7.5,4.7  l-2.8,12.7c-0.6,2.6-0.3,4.1,2.1,4.1l8.9,0c5.5,0,6.4,7.3,0.2,7.3l-14.2,0c-4.2,0-5.5-4-4.2-10.8l3.3-14.7c1-4.7,2.3-5.9,4.8-6.4  c1.8-0.4,3.7-0.4,5.5-1.3C47.2,28.4,60.9,15.8,65.3,29"></path>	<path class="st2" d="M23.3,101.5v-4.4h-1.6v-0.9h4.2v0.9h-1.6v4.4H23.3z M37.1,98.9c0-0.5,0.1-1,0.2-1.4c0.1-0.3,0.3-0.5,0.5-0.7  c0.2-0.2,0.4-0.4,0.7-0.5c0.3-0.1,0.7-0.2,1.1-0.2c0.8,0,1.4,0.2,1.9,0.7c0.5,0.5,0.7,1.2,0.7,2c0,0.9-0.2,1.5-0.7,2  c-0.5,0.5-1.1,0.7-1.9,0.7c-0.8,0-1.4-0.2-1.9-0.7C37.3,100.4,37.1,99.7,37.1,98.9 M38.2,98.9c0,0.6,0.1,1.1,0.4,1.4  c0.3,0.3,0.6,0.5,1.1,0.5c0.4,0,0.8-0.2,1.1-0.5c0.3-0.3,0.4-0.8,0.4-1.4c0-0.6-0.1-1.1-0.4-1.4c-0.3-0.3-0.6-0.4-1.1-0.4  c-0.4,0-0.8,0.2-1.1,0.5C38.3,97.8,38.2,98.2,38.2,98.9 M54,101.5v-5.3h1.1v4.4h2.7v0.9H54z M69.3,96.2h1.1v5.3h-1.1V96.2z   M82.3,101.5v-5.3h1.6l1,3.6l1-3.6h1.6v5.3h-1v-4.2l-1.1,4.2h-1l-1.1-4.2v4.2H82.3z M104.1,101.5H103l-0.5-1.2h-2.1l-0.4,1.2h-1.1  l2.1-5.3h1.1L104.1,101.5z M102.1,99.4l-0.7-2l-0.7,2H102.1z"></path>	<path class="st2" d="M31.4,73.6v5.4h-0.3c-0.2-1.4-0.7-2.5-1.3-3.3c-0.6-0.8-1.4-1.1-2.2-1.1c-0.7,0-1.3,0.3-1.9,0.8  c-0.6,0.6-1,1.3-1.2,2.2c-0.3,1.2-0.5,2.5-0.5,3.9c0,1.4,0.1,2.7,0.4,3.8c0.2,1.1,0.6,2,1.2,2.6c0.5,0.6,1.2,0.9,2,0.9  c0.7,0,1.3-0.2,1.9-0.6c0.6-0.4,1.2-1.2,1.8-2.2v1.4c-0.6,0.9-1.2,1.6-1.9,2C28.6,89.8,27.8,90,27,90c-1.2,0-2.2-0.3-3.1-1  c-0.9-0.7-1.6-1.6-2.1-2.9c-0.5-1.3-0.7-2.6-0.7-4c0-1.5,0.3-2.9,0.8-4.2c0.5-1.3,1.3-2.4,2.2-3.1C25,74,26,73.6,27,73.6  c0.8,0,1.6,0.2,2.4,0.7c0.5,0.3,0.8,0.4,0.9,0.4c0.2,0,0.3-0.1,0.4-0.3c0.1-0.2,0.2-0.5,0.2-0.9H31.4z M36.4,78.5  c0.7,0,1.3,0.2,1.8,0.7c0.6,0.5,1,1.2,1.3,2.1c0.3,0.9,0.4,1.9,0.4,2.9c0,1.5-0.3,2.8-0.8,3.8c-0.7,1.2-1.6,1.9-2.7,1.9  c-1.1,0-2-0.6-2.6-1.7c-0.6-1.1-0.9-2.5-0.9-4c0-1.5,0.3-2.9,0.9-4C34.4,79.1,35.3,78.5,36.4,78.5 M36.4,79.3  c-0.3,0-0.5,0.1-0.7,0.4c-0.2,0.3-0.3,0.9-0.4,1.8c-0.1,0.9-0.1,2.1-0.1,3.6c0,0.8,0,1.6,0.1,2.3c0.1,0.5,0.2,1,0.4,1.2  c0.2,0.3,0.4,0.4,0.7,0.4c0.2,0,0.4-0.1,0.6-0.3c0.2-0.3,0.3-0.6,0.4-1.1c0.1-0.7,0.2-2.2,0.2-4.4c0-1.3-0.1-2.2-0.2-2.7  c-0.1-0.5-0.3-0.8-0.4-1.1C36.8,79.4,36.6,79.3,36.4,79.3 M44.2,78.9v1.4c0.4-0.6,0.8-1.1,1.1-1.4c0.4-0.3,0.7-0.4,1.2-0.4  c0.5,0,0.9,0.2,1.2,0.5c0.3,0.3,0.6,0.8,0.8,1.5c0.4-0.7,0.8-1.2,1.2-1.5c0.4-0.3,0.8-0.5,1.2-0.5c0.5,0,0.9,0.2,1.2,0.5  c0.3,0.3,0.5,0.8,0.6,1.3c0.1,0.5,0.2,1.4,0.2,2.5v4.4c0,0.8,0.1,1.3,0.2,1.5c0.1,0.2,0.3,0.3,0.7,0.4v0.4h-3.9v-0.4  c0.3,0,0.5-0.2,0.7-0.5c0.1-0.2,0.1-0.7,0.1-1.4v-4.6c0-1,0-1.6-0.1-1.8c-0.1-0.3-0.1-0.5-0.3-0.6C50.3,80.1,50.1,80,50,80  c-0.2,0-0.5,0.1-0.7,0.4c-0.2,0.2-0.5,0.6-0.7,1.1v5.8c0,0.8,0,1.3,0.1,1.5c0.1,0.3,0.4,0.4,0.7,0.5v0.4h-3.9v-0.4  c0.2,0,0.4-0.1,0.5-0.2c0.1-0.1,0.2-0.3,0.2-0.5c0-0.2,0.1-0.6,0.1-1.2v-4.6c0-1,0-1.6-0.1-1.8c-0.1-0.2-0.1-0.4-0.3-0.6  c-0.1-0.1-0.3-0.2-0.4-0.2c-0.2,0-0.4,0.1-0.6,0.2c-0.3,0.2-0.5,0.6-0.8,1.2v5.8c0,0.8,0.1,1.3,0.2,1.5c0.1,0.2,0.3,0.4,0.7,0.4  v0.4h-3.9v-0.4c0.3,0,0.5-0.2,0.7-0.4c0.1-0.2,0.1-0.7,0.1-1.5v-6.1c0-0.8-0.1-1.3-0.2-1.5c-0.1-0.2-0.3-0.3-0.7-0.4v-0.4H44.2z   M58,80v7.5c0,0.7,0.1,1.2,0.2,1.4c0.2,0.3,0.5,0.4,0.9,0.4v0.4h-4.4v-0.4c0.3,0,0.6-0.1,0.7-0.2c0.1-0.1,0.2-0.2,0.3-0.4  c0.1-0.2,0.1-0.6,0.1-1.2V80h-1.1v-1.1h1.1v-0.8l0-0.5c0-1.1,0.3-2,0.8-2.8c0.6-0.7,1.3-1.1,2.3-1.1c0.7,0,1.1,0.2,1.5,0.5  c0.3,0.4,0.5,0.7,0.5,1.2c0,0.3-0.1,0.6-0.3,0.9c-0.2,0.3-0.5,0.4-0.8,0.4c-0.3,0-0.5-0.1-0.7-0.3c-0.2-0.2-0.2-0.4-0.2-0.7  c0-0.1,0-0.2,0-0.4c0-0.1,0-0.3,0-0.4c0-0.2,0-0.3-0.1-0.4c-0.1-0.1-0.2-0.2-0.3-0.2c-0.2,0-0.3,0.1-0.4,0.3  c-0.1,0.2-0.2,0.5-0.2,0.9l0,2v1.4h1.1V80H58z M66.6,83.9h-4.1c0,1.4,0.3,2.6,0.8,3.4c0.4,0.6,0.8,1,1.3,1c0.3,0,0.6-0.1,0.9-0.4  c0.3-0.3,0.5-0.7,0.8-1.4l0.3,0.3c-0.4,1.2-0.9,2-1.3,2.5c-0.5,0.5-1.1,0.7-1.7,0.7c-1.1,0-2-0.6-2.5-1.8c-0.5-1-0.7-2.2-0.7-3.7  c0-1.8,0.3-3.2,1-4.3c0.7-1.1,1.5-1.6,2.4-1.6c0.8,0,1.4,0.4,2,1.3C66.2,80.8,66.5,82.1,66.6,83.9 M64.6,83.1c0-1.2,0-2.1-0.1-2.5  c-0.1-0.5-0.2-0.8-0.4-1c-0.1-0.1-0.3-0.2-0.5-0.2c-0.3,0-0.5,0.2-0.7,0.6c-0.3,0.7-0.5,1.6-0.5,2.8v0.4H64.6z M70.6,78.9v1.4  c0.4-0.6,0.8-1,1.1-1.3c0.4-0.3,0.7-0.4,1.1-0.4c0.5,0,0.9,0.2,1.2,0.6c0.3,0.4,0.5,0.9,0.6,1.4c0.1,0.4,0.1,1.3,0.1,2.5v4.2  c0,0.8,0.1,1.3,0.2,1.6c0.1,0.2,0.3,0.3,0.7,0.4v0.4h-3.8v-0.4c0.3-0.1,0.5-0.2,0.6-0.5c0.1-0.2,0.1-0.7,0.1-1.4v-4.8  c0-0.9,0-1.4-0.1-1.7c0-0.2-0.1-0.4-0.2-0.5c-0.1-0.1-0.2-0.2-0.4-0.2c-0.5,0-0.9,0.5-1.3,1.4v5.8c0,0.8,0.1,1.3,0.2,1.5  c0.1,0.2,0.3,0.3,0.6,0.4v0.4h-3.8v-0.4c0.3,0,0.5-0.2,0.7-0.4c0.1-0.2,0.1-0.7,0.1-1.5v-6.1c0-0.8-0.1-1.3-0.2-1.5  c-0.1-0.2-0.3-0.3-0.7-0.4v-0.4H70.6z M80.8,88c-0.9,1.2-1.7,1.7-2.5,1.7c-0.4,0-0.8-0.2-1.1-0.6c-0.3-0.4-0.4-0.9-0.4-1.5  c0-0.8,0.2-1.6,0.7-2.2c0.5-0.7,1.6-1.5,3.2-2.6v-1.1c0-0.8,0-1.3-0.1-1.5c-0.1-0.2-0.2-0.4-0.3-0.6c-0.2-0.2-0.4-0.2-0.6-0.2  c-0.3,0-0.6,0.1-0.9,0.3c-0.1,0.1-0.2,0.3-0.2,0.5c0,0.2,0.1,0.4,0.2,0.6c0.2,0.3,0.3,0.6,0.3,1c0,0.4-0.1,0.7-0.3,1  c-0.2,0.3-0.5,0.4-0.8,0.4c-0.3,0-0.6-0.2-0.8-0.4c-0.2-0.3-0.3-0.6-0.3-1c0-0.6,0.2-1.1,0.5-1.6c0.3-0.5,0.7-0.9,1.3-1.2  c0.5-0.3,1.1-0.4,1.7-0.4c0.7,0,1.3,0.2,1.7,0.7c0.4,0.4,0.7,0.9,0.8,1.4c0.1,0.3,0.1,1.1,0.1,2.2V87c0,0.5,0,0.8,0,0.9  c0,0.1,0.1,0.2,0.1,0.3c0.1,0.1,0.1,0.1,0.2,0.1c0.1,0,0.3-0.1,0.4-0.4l0.2,0.3c-0.3,0.6-0.5,1-0.8,1.2c-0.3,0.3-0.6,0.4-1,0.4  c-0.4,0-0.8-0.1-1-0.4S80.9,88.6,80.8,88 M80.8,87.2v-3.6c-0.6,0.5-1.1,1.1-1.4,1.8c-0.2,0.4-0.3,0.8-0.3,1.3  c0,0.4,0.1,0.7,0.3,0.9c0.1,0.2,0.3,0.3,0.6,0.3C80.1,87.8,80.4,87.6,80.8,87.2 M87.8,74v13.4c0,0.8,0.1,1.2,0.2,1.5  c0.1,0.2,0.4,0.3,0.7,0.4v0.4h-4.1v-0.4c0.3,0,0.6-0.2,0.7-0.4c0.1-0.2,0.2-0.6,0.2-1.4V76.2c0-0.8-0.1-1.2-0.2-1.4  c-0.1-0.2-0.4-0.3-0.7-0.4V74H87.8z M95.6,86.9l0.2,0.3c-0.4,1-0.8,1.7-1.3,2.1C94,89.7,93.4,90,92.8,90c-1,0-1.8-0.5-2.4-1.6  c-0.6-1.1-0.9-2.4-0.9-3.9c0-1.5,0.3-2.8,0.8-3.9c0.7-1.3,1.6-2,2.7-2c0.8,0,1.4,0.3,1.9,0.8c0.5,0.6,0.7,1.2,0.7,1.9  c0,0.4-0.1,0.8-0.3,1.1c-0.2,0.3-0.4,0.4-0.7,0.4c-0.3,0-0.6-0.1-0.8-0.4c-0.2-0.3-0.3-0.8-0.4-1.6c0-0.5-0.1-0.8-0.2-1  c-0.1-0.2-0.3-0.3-0.4-0.3c-0.3,0-0.5,0.2-0.7,0.6c-0.3,0.6-0.4,1.5-0.4,2.7c0,1,0.1,2,0.3,2.9c0.2,0.9,0.5,1.6,0.9,2.1  c0.3,0.3,0.6,0.5,1,0.5c0.3,0,0.5-0.1,0.7-0.3C95,87.7,95.2,87.3,95.6,86.9 M100.3,78.5c0.7,0,1.3,0.2,1.8,0.7  c0.6,0.5,1,1.2,1.3,2.1c0.3,0.9,0.4,1.9,0.4,2.9c0,1.5-0.3,2.8-0.8,3.8c-0.7,1.2-1.6,1.9-2.7,1.9c-1.1,0-2-0.6-2.6-1.7  c-0.6-1.1-0.9-2.5-0.9-4c0-1.5,0.3-2.9,0.9-4C98.3,79.1,99.2,78.5,100.3,78.5 M100.3,79.3c-0.3,0-0.5,0.1-0.7,0.4  c-0.2,0.3-0.3,0.9-0.4,1.8c-0.1,0.9-0.1,2.1-0.1,3.6c0,0.8,0,1.6,0.1,2.3c0.1,0.5,0.2,1,0.4,1.2c0.2,0.3,0.4,0.4,0.7,0.4  c0.2,0,0.4-0.1,0.6-0.3c0.2-0.3,0.3-0.6,0.4-1.1c0.1-0.7,0.2-2.2,0.2-4.4c0-1.3-0.1-2.2-0.2-2.7c-0.1-0.5-0.3-0.8-0.4-1.1  C100.7,79.4,100.5,79.3,100.3,79.3"></path>	<rect x="21.9" y="92" class="st3" width="82.3" height="2.2"></rect>	<path class="st3" d="M22,68.9h14.3V39.6h0c0.6-13.9,11.8-25.1,25.6-25.1c13.8,0,25,11.1,25.6,25.1h0v1.1v28.2h16.6v2.4h-19v-1.6  v-0.8V51.7V40.7v-1.1h0c-0.6-12.7-10.7-22.8-23.2-22.8c-12.5,0-22.6,10.1-23.2,22.8h0v1.1v11.1v17.2v0.8v1.6H22V68.9z"></path></g></svg>
